<svg width="90" height="76" viewBox="0 0 90 76" fill="none" xmlns="http://www.w3.org/2000/svg">
<path fill-rule="evenodd" clip-rule="evenodd" d="M88.8665 15.4062C89.1911 14.9594 89.0922 14.3333 88.6412 14.0146C75.7458 4.90082 60.3359 2.33491e-07 44.5287 0C28.7214 -2.33491e-07 13.3115 4.90082 0.416125 14.0146C-0.034891 14.3333 -0.133778 14.9594 0.190847 15.4062L30.2039 56.7156C30.7714 57.4967 31.9826 57.0998 31.9473 56.135C31.8871 54.4922 31.7665 52.7482 31.5661 50.8988C30.5855 46.486 28.3372 45.1272 26.548 44.0459C25.2924 43.2871 24.2629 42.6649 24.0564 41.2197C23.6595 38.4407 23.8855 19.2547 24.052 9.76235C24.055 9.59437 24.0959 9.4322 24.1974 9.29827C24.8643 8.4177 26.0766 8.41516 26.7468 9.29067C26.8525 9.42886 26.8934 9.60362 26.8934 9.77764V31.3852C26.8934 31.6937 27.0341 31.9879 27.2839 32.169C28.4235 32.9948 28.6671 32.7859 29.6971 31.9028C29.7183 31.8847 29.7304 31.8582 29.7304 31.8303V9.77764C29.7304 9.60362 29.7714 9.42886 29.8771 9.29067C30.5449 8.41823 31.7511 8.41769 32.4195 9.28907C32.5262 9.42815 32.5671 9.59472 32.5665 9.77001C32.5596 11.733 32.518 24.4259 32.5642 31.4152C32.5662 31.7093 32.6933 31.9908 32.9446 32.1435C33.8015 32.6641 34.8535 32.743 35.3898 32.1432C35.5307 31.9856 35.557 31.7643 35.5477 31.5532C35.4378 29.0525 35.5373 14.1564 35.5648 10.0501C35.5662 9.83257 35.5675 9.64534 35.5685 9.49183C35.5705 9.18805 35.7042 8.88899 35.9771 8.75557C36.6007 8.45074 37.3521 8.43059 37.8596 8.69513C38.1387 8.84062 38.2675 9.18552 38.2771 9.50012C38.3573 12.1214 38.2933 24.6522 38.2438 31.5421C38.2423 31.761 38.3077 31.9747 38.4611 32.1307C39.2523 32.9353 40.2612 32.7848 40.8715 32.2957C41.1456 32.076 41.2731 31.6702 41.2829 31.319C41.3596 28.579 41.2976 16.3546 41.2488 9.49179C41.2466 9.18543 41.3792 8.88739 41.6529 8.74981C42.2959 8.42667 43.0395 8.43127 43.5966 8.76353C43.8196 8.89653 43.9176 9.15611 43.9224 9.41571C43.9706 12.0539 44.0788 15.254 44.1919 18.5983C44.5242 28.4259 44.8986 39.4991 43.9154 41.2197C43.3225 42.2573 42.4414 42.999 41.4687 43.8178L41.4687 43.8178C39.6851 45.3192 37.5936 47.0799 36.4057 51.3994C35.7469 56.231 35.9009 60.7735 36.2081 64.7299C36.2223 64.9134 36.2874 65.0888 36.3955 65.2377L43.7196 75.3184C44.119 75.8681 44.9384 75.8681 45.3377 75.3184L57.8256 58.1303C57.9176 58.0037 57.9409 57.8369 57.8838 57.6912C57.8152 57.516 57.6419 57.4128 57.4564 57.3812C50.3454 56.1674 50.9247 13.1222 63.2302 5.23501C63.4697 5.08148 63.778 5.04174 63.9843 5.23765C65.4744 6.6527 65.3684 13.6709 65.0835 32.5283C65.0266 36.2968 64.9625 40.5382 64.9026 45.3022C64.8904 46.2768 66.1371 46.6905 66.7099 45.9021L88.8665 15.4062Z" fill="#FEA115"/>
</svg>
